<svg id="main_svg" xmlns="http://www.w3.org/2000/svg" viewbox="0 0 1200 600" width="1200px" height="600px"><g id="svg_g_edges"><path id="svg_path_edges" d="M 532.1220630111382 64.20960665705041 L 536.0453062873407 0 M 532.1220630111382 64.20960665705041 L 335.17275825968426 256.11949517509345 M 532.1220630111382 64.20960665705041 L 637.0193458908077 253.16841074850964 M 861.5555290824001 329.4940419293093 L 1013.258064516129 0 M 335.17275825968426 256.11949517509345 L 0 158.48954659574218 M 335.17275825968426 256.11949517509345 L 429.9295628834951 524.6147000929591 M 637.0193458908077 253.16841074850964 L 861.5555290824001 329.4940419293093 M 637.0193458908077 253.16841074850964 L 429.9295628834951 524.6147000929591 M 861.5555290824001 329.4940419293093 L 935.1697709328441 600 M 429.9295628834951 524.6147000929591 L 421.98711324118 600 M 421.98711324118 600 L 935.1697709328441 600 M 0 158.48954659574218 L 0 600 M 0 600 L 421.98711324118 600 M 935.1697709328441 600 L 1200 600 M 1200 600 L 1200 0 M 1200 0 L 1013.258064516129 0 M 1013.258064516129 0 L 536.0453062873407 0 M 536.0453062873407 0 L 0 0 M 0 0 L 0 158.48954659574218 " stroke="black" stroke-width="2"/></g></svg>