<?xml version="1.0" encoding="UTF-8" standalone="no"?>
<svg
   xmlns:dc="http://purl.org/dc/elements/1.1/"
   xmlns:cc="http://creativecommons.org/ns#"
   xmlns:rdf="http://www.w3.org/1999/02/22-rdf-syntax-ns#"
   xmlns:svg="http://www.w3.org/2000/svg"
   xmlns="http://www.w3.org/2000/svg"
   xmlns:sodipodi="http://sodipodi.sourceforge.net/DTD/sodipodi-0.dtd"
   xmlns:inkscape="http://www.inkscape.org/namespaces/inkscape"
   width="251.67979mm"
   height="251.67982mm"
   viewBox="0 0 251.67979 251.67982"
   version="1.1"
   id="svg1991"
   inkscape:version="1.0.2-2 (e86c870879, 2021-01-15)"
   sodipodi:docname="line segments.svg">
  <defs
     id="defs1985" />
  <sodipodi:namedview
     id="base"
     pagecolor="#ffffff"
     bordercolor="#666666"
     borderopacity="1.0"
     inkscape:pageopacity="0.0"
     inkscape:pageshadow="2"
     inkscape:zoom="0.35"
     inkscape:cx="82.210142"
     inkscape:cy="501.32964"
     inkscape:document-units="mm"
     inkscape:current-layer="layer1"
     inkscape:document-rotation="0"
     showgrid="false"
     fit-margin-top="0"
     fit-margin-left="0"
     fit-margin-right="0"
     fit-margin-bottom="0"
     inkscape:window-width="2560"
     inkscape:window-height="1017"
     inkscape:window-x="-8"
     inkscape:window-y="-8"
     inkscape:window-maximized="1" />
  <metadata
     id="metadata1988">
    <rdf:RDF>
      <cc:Work
         rdf:about="">
        <dc:format>image/svg+xml</dc:format>
        <dc:type
           rdf:resource="http://purl.org/dc/dcmitype/StillImage" />
        <dc:title></dc:title>
      </cc:Work>
    </rdf:RDF>
  </metadata>
  <g
     inkscape:label="Layer 1"
     inkscape:groupmode="layer"
     id="layer1"
     transform="translate(-84.0819,-15.5232)">
    <path
       style="display:inline;fill:none;stroke:#000000;stroke-width:0.6;stroke-linecap:butt;stroke-linejoin:miter;stroke-miterlimit:4;stroke-dasharray:none;stroke-opacity:1"
       d="m 335.7617,142.52318 c 0,0 -1.4871,-4.88795 -10.8924,-7.71105 -9.4052,-2.8231 -31.4868,-6.3378 -45.1916,-5.8582 -13.7048,0.4797 -24.5712,5.616 -35.9859,7.253 -11.4147,1.637 -24.7448,2.94562 -32.3594,2.7896 -7.6146,-0.15602 -11.4823,-1.3272 -13.1111,-1.6737 -1.6288,-0.3465 -3.8802,0.16445 -3.1621,-4.74403 0.7181,-4.90848 17.3623,-2.16152 18.6436,-15.4364 1.2813,-13.2749 -13.2979,-21.1288 -22.4622,-22.7144 -9.1644,-1.5856 -17.6683,5.1485 -21.5,10.3416 -3.8317,5.1931 -3.1156,10.2898 -2.205,14.6997 0.9106,4.40985 4.3095,7.6025 6.4161,10.32153 2.1066,2.71903 7.2212,1.98634 5.8582,6.1372 -1.363,4.15086 -15.1724,0.0416 -24.0569,2.05626 -8.8844,2.01466 -14.7578,11.26765 -28.5517,10.77025 -20.967,-0.95586 -43.1194,-6.23136 -43.1194,-6.23136"
       id="path833"
       sodipodi:nodetypes="czzzzzzzzzzzzzcc" />
  </g>
</svg>
